<svg width="18" height="18" viewBox="0 0 18 18" fill="none" xmlns="http://www.w3.org/2000/svg">
<g id="calender" clip-path="url(#clip0_412_2546)">
<path id="Icon" d="M16 7.5H2M12.1111 1.5V4.5M5.88889 1.5V4.5M5.73333 16.5H12.2667C13.5735 16.5 14.2269 16.5 14.726 16.2548C15.165 16.039 15.522 15.6948 15.7457 15.2715C16 14.7902 16 14.1601 16 12.9V6.6C16 5.33988 16 4.70982 15.7457 4.22852C15.522 3.80516 15.165 3.46095 14.726 3.24524C14.2269 3 13.5735 3 12.2667 3H5.73333C4.42654 3 3.77315 3 3.27402 3.24524C2.83498 3.46095 2.47802 3.80516 2.25432 4.22852C2 4.70982 2 5.33988 2 6.6V12.9C2 14.1601 2 14.7902 2.25432 15.2715C2.47802 15.6948 2.83498 16.039 3.27402 16.2548C3.77315 16.5 4.42654 16.5 5.73333 16.5Z" stroke="#333333" stroke-linecap="round" stroke-linejoin="round"/>
</g>
<defs>
<clipPath id="clip0_412_2546">
<rect width="18" height="18" fill="white"/>
</clipPath>
</defs>
</svg>
