<svg width="18" height="17" viewBox="0 0 18 17" fill="none" xmlns="http://www.w3.org/2000/svg">
<path id="Icon" d="M8.15659 2.18682H4.81685C3.48083 2.18682 2.81281 2.18682 2.30252 2.44683C1.85366 2.67554 1.48872 3.04048 1.26001 3.48935C1 3.99964 1 4.66765 1 6.00367V12.6832C1 14.0192 1 14.6872 1.26001 15.1975C1.48872 15.6463 1.85366 16.0113 2.30252 16.24C2.81281 16.5 3.48083 16.5 4.81685 16.5H11.4963C12.8324 16.5 13.5004 16.5 14.0107 16.24C14.4595 16.0113 14.8245 15.6463 15.0532 15.1975C15.3132 14.6872 15.3132 14.0192 15.3132 12.6832V9.34341M5.77104 11.7289H7.10259C7.49158 11.7289 7.68607 11.7289 7.8691 11.685C8.03138 11.646 8.18651 11.5818 8.3288 11.4946C8.48929 11.3962 8.62682 11.2587 8.90187 10.9837L16.5059 3.37959C17.1647 2.72084 17.1647 1.65281 16.5059 0.99406C15.8472 0.335314 14.7792 0.335313 14.1204 0.994058L6.51633 8.59813C6.24127 8.87318 6.10374 9.01071 6.00539 9.1712C5.9182 9.31349 5.85394 9.46862 5.81498 9.6309C5.77104 9.81393 5.77104 10.0084 5.77104 10.3974V11.7289Z" stroke="white" stroke-linecap="round" stroke-linejoin="round"/>
</svg>
