<svg width="18" height="17" viewBox="0 0 18 17" fill="none" xmlns="http://www.w3.org/2000/svg">
<path id="Icon" d="M5 0.5H11.3111C13.3024 0.5 14.2981 0.5 15.0586 0.887532C15.7277 1.22842 16.2716 1.77235 16.6125 2.44137C17 3.20194 17 4.19759 17 6.18889V12.5M3.84444 16.5H11.0444C12.0401 16.5 12.5379 16.5 12.9182 16.3062C13.2527 16.1358 13.5247 15.8638 13.6951 15.5293C13.8889 15.149 13.8889 14.6512 13.8889 13.6556V6.45556C13.8889 5.45991 13.8889 4.96208 13.6951 4.58179C13.5247 4.24728 13.2527 3.97532 12.9182 3.80488C12.5379 3.61111 12.0401 3.61111 11.0444 3.61111H3.84444C2.8488 3.61111 2.35097 3.61111 1.97068 3.80488C1.63617 3.97532 1.36421 4.24728 1.19377 4.58179C1 4.96208 1 5.45991 1 6.45556V13.6556C1 14.6512 1 15.149 1.19377 15.5293C1.36421 15.8638 1.63617 16.1358 1.97068 16.3062C2.35097 16.5 2.8488 16.5 3.84444 16.5Z" stroke="white" stroke-linecap="round" stroke-linejoin="round"/>
</svg>
