<svg width="18" height="18" viewBox="0 0 18 18" fill="none" xmlns="http://www.w3.org/2000/svg">
<path id="Icon" d="M12.2 5.8V3.56C12.2 2.66392 12.2 2.21587 12.0256 1.87362C11.8722 1.57256 11.6274 1.32779 11.3264 1.17439C10.9841 1 10.5361 1 9.64 1H3.56C2.66392 1 2.21587 1 1.87362 1.17439C1.57256 1.32779 1.32779 1.57256 1.17439 1.87362C1 2.21587 1 2.66392 1 3.56V9.64C1 10.5361 1 10.9841 1.17439 11.3264C1.32779 11.6274 1.57256 11.8722 1.87362 12.0256C2.21587 12.2 2.66392 12.2 3.56 12.2H5.8M9 11.4L10.6 13L14.2 9.4M8.36 17H14.44C15.3361 17 15.7841 17 16.1264 16.8256C16.4274 16.6722 16.6722 16.4274 16.8256 16.1264C17 15.7841 17 15.3361 17 14.44V8.36C17 7.46392 17 7.01587 16.8256 6.67362C16.6722 6.37256 16.4274 6.12779 16.1264 5.97439C15.7841 5.8 15.3361 5.8 14.44 5.8H8.36C7.46392 5.8 7.01587 5.8 6.67362 5.97439C6.37256 6.12779 6.12779 6.37256 5.97439 6.67362C5.8 7.01587 5.8 7.46392 5.8 8.36V14.44C5.8 15.3361 5.8 15.7841 5.97439 16.1264C6.12779 16.4274 6.37256 16.6722 6.67362 16.8256C7.01587 17 7.46392 17 8.36 17Z" stroke="#5D5D5D" stroke-linecap="round" stroke-linejoin="round"/>
</svg>
