<svg width="21" height="20" viewBox="0 0 21 20" fill="none" xmlns="http://www.w3.org/2000/svg">
<g clip-path="url(#clip0_340_9328)">
<path d="M14.5225 10.1036C14.5058 8.3322 16.0454 7.48173 16.1134 7.44231C15.2482 6.23874 13.8993 6.071 13.4208 6.05087C12.2723 5.94099 11.1793 6.69417 10.5985 6.69417C10.0176 6.69417 9.11711 6.06932 8.16721 6.08693C6.91362 6.10287 5.76244 6.77888 5.11711 7.83987C3.81762 9.98281 4.78341 13.1574 6.052 14.8944C6.66997 15.7449 7.40711 16.7002 8.37555 16.6658C9.31044 16.6314 9.66356 16.0929 10.7918 16.0929C11.92 16.0929 12.2369 16.6658 13.2248 16.6515C14.2286 16.6314 14.8651 15.7809 15.4777 14.9305C16.1875 13.9433 16.4824 12.988 16.4991 12.9376C16.4771 12.9301 14.5411 12.2239 14.5217 10.1036H14.5225Z" fill="white"/>
<path d="M12.666 4.90099C13.1815 4.30969 13.5294 3.48606 13.4331 2.66663C12.6925 2.69347 11.7946 3.13715 11.2641 3.72594C10.7865 4.25182 10.3671 5.09222 10.481 5.89404C11.3064 5.95359 12.1531 5.49397 12.666 4.90099Z" fill="white"/>
</g>
<defs>
<clipPath id="clip0_340_9328">
<rect width="12" height="14" fill="white" transform="translate(4.5 2.66666)"/>
</clipPath>
</defs>
</svg>
