<svg width="80" height="80" viewBox="0 0 80 80" fill="none" xmlns="http://www.w3.org/2000/svg">
<circle cx="40" cy="40" r="40" fill="#ECECEC"/>
<path d="M40 17.5C37.3478 17.5 34.8043 18.5536 32.9289 20.4289C31.0536 22.3043 30 24.8478 30 27.5C30 30.1522 31.0536 32.6957 32.9289 34.5711C34.8043 36.4464 37.3478 37.5 40 37.5C42.6522 37.5 45.1957 36.4464 47.0711 34.5711C48.9464 32.6957 50 30.1522 50 27.5C50 24.8478 48.9464 22.3043 47.0711 20.4289C45.1957 18.5536 42.6522 17.5 40 17.5ZM40 45C32.49 45 17.5 48.77 17.5 56.25V60C17.5 61.38 18.62 62.5 20 62.5H60C61.38 62.5 62.5 61.38 62.5 60V56.25C62.5 48.77 47.51 45 40 45Z" fill="white"/>
<rect x="50" y="50" width="30" height="30" rx="15" fill="#0068FF"/>
<path d="M69.8308 63.4803L66.5197 60.1692M57 73L59.8016 72.6887C60.1438 72.6507 60.315 72.6317 60.475 72.5799C60.6169 72.5339 60.7519 72.469 60.8765 72.3869C61.0168 72.2943 61.1386 72.1726 61.3821 71.9291L72.3142 60.997C73.2286 60.0826 73.2286 58.6001 72.3142 57.6858C71.3999 56.7714 69.9174 56.7714 69.0031 57.6858L58.0709 68.6179C57.8274 68.8614 57.7057 68.9832 57.6131 69.1235C57.531 69.2481 57.4661 69.3831 57.4201 69.525C57.3683 69.685 57.3493 69.8561 57.3113 70.1984L57 73Z" stroke="white" stroke-linecap="round" stroke-linejoin="round"/>
</svg>
