<svg width="12" height="17" viewBox="0 0 12 17" fill="none" xmlns="http://www.w3.org/2000/svg">
<path d="M6.00375 13.224C2.85175 13.224 0.70775 10.888 0.70775 7.032C0.70775 3.176 2.85175 0.952 6.00375 0.952C9.13975 0.952 11.2838 3.192 11.2838 7.032C11.2838 10.888 9.13975 13.224 6.00375 13.224ZM6.00375 11.288C7.76375 11.288 8.88375 9.704 8.88375 7.032C8.88375 4.504 7.76375 2.984 6.00375 2.984C4.22775 2.984 3.12375 4.504 3.12375 7.032C3.12375 9.704 4.22775 11.288 6.00375 11.288ZM9.82775 16.216C7.31575 16.216 5.58775 14.824 4.83575 12.936L7.23575 12.696C7.68375 13.848 8.89975 14.328 10.0838 14.328C10.6118 14.328 11.0438 14.248 11.3958 14.12L11.8278 15.864C11.3958 16.072 10.6918 16.216 9.82775 16.216Z" fill="#0068FF"/>
</svg>
