<svg width="20" height="20" viewBox="0 0 20 20" fill="none" xmlns="http://www.w3.org/2000/svg">
<path d="M6.25 5C6.08424 5 5.92527 5.06585 5.80806 5.18306C5.69085 5.30027 5.625 5.45924 5.625 5.625C5.625 5.79076 5.69085 5.94973 5.80806 6.06694C5.92527 6.18415 6.08424 6.25 6.25 6.25H13.75C13.9158 6.25 14.0747 6.18415 14.1919 6.06694C14.3092 5.94973 14.375 5.79076 14.375 5.625C14.375 5.45924 14.3092 5.30027 14.1919 5.18306C14.0747 5.06585 13.9158 5 13.75 5H6.25ZM5.625 8.125C5.625 7.95924 5.69085 7.80027 5.80806 7.68306C5.92527 7.56585 6.08424 7.5 6.25 7.5H13.75C13.9158 7.5 14.0747 7.56585 14.1919 7.68306C14.3092 7.80027 14.375 7.95924 14.375 8.125C14.375 8.29076 14.3092 8.44973 14.1919 8.56694C14.0747 8.68415 13.9158 8.75 13.75 8.75H6.25C6.08424 8.75 5.92527 8.68415 5.80806 8.56694C5.69085 8.44973 5.625 8.29076 5.625 8.125ZM6.25 10C6.08424 10 5.92527 10.0658 5.80806 10.1831C5.69085 10.3003 5.625 10.4592 5.625 10.625C5.625 10.7908 5.69085 10.9497 5.80806 11.0669C5.92527 11.1842 6.08424 11.25 6.25 11.25H13.75C13.9158 11.25 14.0747 11.1842 14.1919 11.0669C14.3092 10.9497 14.375 10.7908 14.375 10.625C14.375 10.4592 14.3092 10.3003 14.1919 10.1831C14.0747 10.0658 13.9158 10 13.75 10H6.25ZM6.25 12.5C6.08424 12.5 5.92527 12.5658 5.80806 12.6831C5.69085 12.8003 5.625 12.9592 5.625 13.125C5.625 13.2908 5.69085 13.4497 5.80806 13.5669C5.92527 13.6842 6.08424 13.75 6.25 13.75H10C10.1658 13.75 10.3247 13.6842 10.4419 13.5669C10.5592 13.4497 10.625 13.2908 10.625 13.125C10.625 12.9592 10.5592 12.8003 10.4419 12.6831C10.3247 12.5658 10.1658 12.5 10 12.5H6.25Z" fill="#fff"/>
<path d="M2.5 2.5C2.5 1.83696 2.76339 1.20107 3.23223 0.732233C3.70107 0.263392 4.33696 0 5 0L15 0C15.663 0 16.2989 0.263392 16.7678 0.732233C17.2366 1.20107 17.5 1.83696 17.5 2.5V17.5C17.5 18.163 17.2366 18.7989 16.7678 19.2678C16.2989 19.7366 15.663 20 15 20H5C4.33696 20 3.70107 19.7366 3.23223 19.2678C2.76339 18.7989 2.5 18.163 2.5 17.5V2.5ZM15 1.25H5C4.66848 1.25 4.35054 1.3817 4.11612 1.61612C3.8817 1.85054 3.75 2.16848 3.75 2.5V17.5C3.75 17.8315 3.8817 18.1495 4.11612 18.3839C4.35054 18.6183 4.66848 18.75 5 18.75H15C15.3315 18.75 15.6495 18.6183 15.8839 18.3839C16.1183 18.1495 16.25 17.8315 16.25 17.5V2.5C16.25 2.16848 16.1183 1.85054 15.8839 1.61612C15.6495 1.3817 15.3315 1.25 15 1.25Z" fill="#fff"/>
</svg>
