<svg width="30" height="30" viewBox="0 0 30 30" fill="none" xmlns="http://www.w3.org/2000/svg">
<rect width="30" height="30" rx="15" fill="#0068FF"/>
<path d="M19.8308 13.4803L16.5197 10.1692M7 23L9.80156 22.6887C10.1438 22.6507 10.315 22.6317 10.475 22.5799C10.6169 22.5339 10.7519 22.469 10.8765 22.3869C11.0168 22.2943 11.1386 22.1726 11.3821 21.9291L22.3142 10.997C23.2286 10.0826 23.2286 8.60013 22.3142 7.68577C21.3999 6.77141 19.9174 6.77141 19.0031 7.68577L8.07094 18.6179C7.82742 18.8614 7.70566 18.9832 7.6131 19.1235C7.53097 19.2481 7.46606 19.3831 7.42012 19.525C7.36833 19.685 7.34932 19.8561 7.31128 20.1984L7 23Z" stroke="white" stroke-linecap="round" stroke-linejoin="round"/>
</svg>
