<svg width="12" height="17" viewBox="0 0 12 17" fill="none" xmlns="http://www.w3.org/2000/svg">
<path d="M6.16 13.224C3.008 13.224 0.864 10.888 0.864 7.032C0.864 3.176 3.008 0.952 6.16 0.952C9.296 0.952 11.44 3.192 11.44 7.032C11.44 10.888 9.296 13.224 6.16 13.224ZM6.16 11.288C7.92 11.288 9.04 9.704 9.04 7.032C9.04 4.504 7.92 2.984 6.16 2.984C4.384 2.984 3.28 4.504 3.28 7.032C3.28 9.704 4.384 11.288 6.16 11.288ZM9.984 16.216C7.472 16.216 5.744 14.824 4.992 12.936L7.392 12.696C7.84 13.848 9.056 14.328 10.24 14.328C10.768 14.328 11.2 14.248 11.552 14.12L11.984 15.864C11.552 16.072 10.848 16.216 9.984 16.216Z" fill="#333333"/>
</svg>
