<svg width="20" height="20" viewBox="0 0 20 20" fill="none" xmlns="http://www.w3.org/2000/svg">
<g clip-path="url(#clip0_527_3426)">
<path d="M13.5676 7.68252C13.6258 7.74058 13.6719 7.80954 13.7034 7.88548C13.735 7.96141 13.7512 8.04281 13.7512 8.12502C13.7512 8.20723 13.735 8.28863 13.7034 8.36456C13.6719 8.44049 13.6258 8.50946 13.5676 8.56752L9.81756 12.3175C9.7595 12.3757 9.69053 12.4219 9.6146 12.4534C9.53867 12.4849 9.45727 12.5011 9.37506 12.5011C9.29285 12.5011 9.21145 12.4849 9.13551 12.4534C9.05958 12.4219 8.99061 12.3757 8.93256 12.3175L7.05756 10.4425C6.99945 10.3844 6.95335 10.3154 6.9219 10.2395C6.89045 10.1636 6.87427 10.0822 6.87427 10C6.87427 9.91784 6.89045 9.83646 6.9219 9.76054C6.95335 9.68461 6.99945 9.61563 7.05756 9.55752C7.11567 9.49941 7.18465 9.45331 7.26058 9.42186C7.3365 9.39042 7.41788 9.37423 7.50006 9.37423C7.58224 9.37423 7.66361 9.39042 7.73954 9.42186C7.81546 9.45331 7.88445 9.49941 7.94256 9.55752L9.37506 10.9913L12.6826 7.68252C12.7406 7.62431 12.8096 7.57814 12.8855 7.54663C12.9614 7.51512 13.0428 7.4989 13.1251 7.4989C13.2073 7.4989 13.2887 7.51512 13.3646 7.54663C13.4405 7.57814 13.5095 7.62431 13.5676 7.68252Z" fill="#848484"/>
<path d="M5 0C4.33696 0 3.70107 0.263392 3.23223 0.732233C2.76339 1.20107 2.5 1.83696 2.5 2.5V17.5C2.5 18.163 2.76339 18.7989 3.23223 19.2678C3.70107 19.7366 4.33696 20 5 20H15C15.663 20 16.2989 19.7366 16.7678 19.2678C17.2366 18.7989 17.5 18.163 17.5 17.5V2.5C17.5 1.83696 17.2366 1.20107 16.7678 0.732233C16.2989 0.263392 15.663 0 15 0L5 0ZM5 1.25H15C15.3315 1.25 15.6495 1.3817 15.8839 1.61612C16.1183 1.85054 16.25 2.16848 16.25 2.5V17.5C16.25 17.8315 16.1183 18.1495 15.8839 18.3839C15.6495 18.6183 15.3315 18.75 15 18.75H5C4.66848 18.75 4.35054 18.6183 4.11612 18.3839C3.8817 18.1495 3.75 17.8315 3.75 17.5V2.5C3.75 2.16848 3.8817 1.85054 4.11612 1.61612C4.35054 1.3817 4.66848 1.25 5 1.25Z" fill="#848484"/>
</g>
<defs>
<clipPath id="clip0_527_3426">
<rect width="20" height="20" fill="white"/>
</clipPath>
</defs>
</svg>
