<svg width="18" height="14" viewBox="0 0 18 14" fill="none" xmlns="http://www.w3.org/2000/svg">
<path d="M16.6 11.7996L11.2857 6.99961M6.71429 6.99961L1.40003 11.7996M1 2.99961L7.53194 7.57196C8.06087 7.94222 8.32534 8.12735 8.61301 8.19906C8.86712 8.2624 9.13288 8.2624 9.38699 8.19906C9.67466 8.12735 9.93913 7.94222 10.4681 7.57196L17 2.99961M4.84 13.3996H13.16C14.5041 13.3996 15.1762 13.3996 15.6896 13.138C16.1412 12.9079 16.5083 12.5408 16.7384 12.0892C17 11.5758 17 10.9037 17 9.55961V4.43961C17 3.09548 17 2.42342 16.7384 1.91003C16.5083 1.45844 16.1412 1.09129 15.6896 0.861194C15.1762 0.599609 14.5041 0.599609 13.16 0.599609H4.84C3.49587 0.599609 2.82381 0.599609 2.31042 0.861194C1.85883 1.09129 1.49168 1.45844 1.26158 1.91003C1 2.42342 1 3.09548 1 4.43961V9.55961C1 10.9037 1 11.5758 1.26158 12.0892C1.49168 12.5408 1.85883 12.9079 2.31042 13.138C2.82381 13.3996 3.49587 13.3996 4.84 13.3996Z" stroke="#848484" stroke-linecap="round" stroke-linejoin="round"/>
</svg>
