<svg width="20" height="20" viewBox="0 0 20 20" fill="none" xmlns="http://www.w3.org/2000/svg">
<path d="M17.6154 5.27478H2.38461C1.61991 5.27478 1 5.89469 1 6.65939V16.3517C1 17.1164 1.61991 17.7363 2.38461 17.7363H17.6154C18.3801 17.7363 19 17.1164 19 16.3517V6.65939C19 5.89469 18.3801 5.27478 17.6154 5.27478Z" stroke="#ffffff" stroke-width="1.5" stroke-linecap="round" stroke-linejoin="round"/>
<path d="M1 10.8131H19" stroke="#ffffff" stroke-width="1.5" stroke-linecap="round" stroke-linejoin="round"/>
<path d="M10 9.42859V12.1978" stroke="#ffffff" stroke-width="1.5" stroke-linecap="round" stroke-linejoin="round"/>
<path d="M14.1536 5.27469C14.1536 4.17302 13.716 3.11648 12.937 2.33748C12.158 1.55849 11.1015 1.12085 9.99979 1.12085V1.12085C8.89812 1.12085 7.84158 1.55849 7.06258 2.33748C6.28358 3.11648 5.84595 4.17302 5.84595 5.27469" stroke="#ffffff" stroke-width="1.5" stroke-linecap="round" stroke-linejoin="round"/>
</svg>
