<svg width="16" height="18" viewBox="0 0 16 18" fill="none" xmlns="http://www.w3.org/2000/svg">
<path d="M11.1111 4.2V3.56C11.1111 2.66392 11.1111 2.21587 10.9416 1.87362C10.7924 1.57256 10.5545 1.32779 10.2618 1.17439C9.92901 1 9.49342 1 8.62222 1H7.37778C6.50658 1 6.07099 1 5.73824 1.17439C5.44554 1.32779 5.20757 1.57256 5.05843 1.87362C4.88889 2.21587 4.88889 2.66392 4.88889 3.56V4.2M1 4.2H15M13.4444 4.2V13.16C13.4444 14.5041 13.4444 15.1762 13.1901 15.6896C12.9664 16.1412 12.6095 16.5083 12.1704 16.7384C11.6713 17 11.0179 17 9.71111 17H6.28889C4.9821 17 4.32871 17 3.82958 16.7384C3.39053 16.5083 3.03358 16.1412 2.80987 15.6896C2.55556 15.1762 2.55556 14.5041 2.55556 13.16V4.2" stroke="#848484" stroke-linecap="round" stroke-linejoin="round"/>
</svg>
