<svg width="22" height="22" viewBox="0 0 22 22" fill="none" xmlns="http://www.w3.org/2000/svg">
<path d="M18.3333 9.16663C18.3333 8.92352 18.2367 8.69036 18.0648 8.51845C17.8929 8.34654 17.6597 8.24997 17.4166 8.24997C17.1735 8.24997 16.9403 8.34654 16.7684 8.51845C16.5965 8.69036 16.5 8.92352 16.5 9.16663H18.3333ZM5.49995 9.16663C5.49995 8.92352 5.40338 8.69036 5.23147 8.51845C5.05956 8.34654 4.8264 8.24997 4.58329 8.24997C4.34017 8.24997 4.10701 8.34654 3.9351 8.51845C3.7632 8.69036 3.66662 8.92352 3.66662 9.16663H5.49995ZM18.6019 11.6481C18.7748 11.815 19.0063 11.9074 19.2467 11.9053C19.487 11.9032 19.7169 11.8068 19.8869 11.6369C20.0568 11.4669 20.1532 11.237 20.1553 10.9967C20.1574 10.7563 20.065 10.5248 19.898 10.3519L18.6019 11.6481ZM11 2.74997L11.648 2.10188C11.4761 1.93004 11.243 1.8335 11 1.8335C10.7569 1.8335 10.5238 1.93004 10.3519 2.10188L11 2.74997ZM2.10187 10.3519C2.01432 10.4364 1.94448 10.5376 1.89644 10.6494C1.8484 10.7613 1.82311 10.8816 1.82206 11.0033C1.821 11.125 1.84419 11.2457 1.89028 11.3583C1.93637 11.471 2.00444 11.5733 2.09051 11.6594C2.17658 11.7455 2.27892 11.8135 2.39158 11.8596C2.50423 11.9057 2.62494 11.9289 2.74665 11.9279C2.86837 11.9268 2.98865 11.9015 3.10049 11.8535C3.21233 11.8054 3.31348 11.7356 3.39804 11.6481L2.10187 10.3519ZM6.41662 20.1666H15.5833V18.3333H6.41662V20.1666ZM18.3333 17.4166V9.16663H16.5V17.4166H18.3333ZM5.49995 17.4166V9.16663H3.66662V17.4166H5.49995ZM19.898 10.3519L11.648 2.10188L10.3519 3.39805L18.6019 11.6481L19.898 10.3519ZM10.3519 2.10188L2.10187 10.3519L3.39804 11.6481L11.648 3.39805L10.3519 2.10188ZM15.5833 20.1666C16.3126 20.1666 17.0121 19.8769 17.5278 19.3612C18.0436 18.8455 18.3333 18.146 18.3333 17.4166H16.5C16.5 17.6597 16.4034 17.8929 16.2315 18.0648C16.0596 18.2367 15.8264 18.3333 15.5833 18.3333V20.1666ZM6.41662 18.3333C6.1735 18.3333 5.94035 18.2367 5.76844 18.0648C5.59653 17.8929 5.49995 17.6597 5.49995 17.4166H3.66662C3.66662 18.146 3.95635 18.8455 4.47208 19.3612C4.9878 19.8769 5.68727 20.1666 6.41662 20.1666V18.3333Z" fill="#848484"/>
</svg>
