<svg width="22" height="22" viewBox="0 0 22 22" fill="none" xmlns="http://www.w3.org/2000/svg">
<path d="M17.4883 5.5H7.94922C6.59655 5.5 5.5 6.59655 5.5 7.94922V17.4883C5.5 18.8409 6.59655 19.9375 7.94922 19.9375H17.4883C18.8409 19.9375 19.9375 18.8409 19.9375 17.4883V7.94922C19.9375 6.59655 18.8409 5.5 17.4883 5.5Z" stroke="#ffffff" stroke-width="1.5" stroke-linejoin="round"/>
<path d="M16.4785 5.5L16.5 4.46875C16.4982 3.83113 16.2441 3.22014 15.7932 2.76928C15.3424 2.31841 14.7314 2.06431 14.0938 2.0625H4.8125C4.08382 2.06465 3.38559 2.35508 2.87034 2.87034C2.35508 3.38559 2.06465 4.08382 2.0625 4.8125V14.0938C2.06431 14.7314 2.31841 15.3424 2.76928 15.7932C3.22014 16.2441 3.83113 16.4982 4.46875 16.5H5.5" stroke="#ffffff" stroke-width="1.5" stroke-linecap="round" stroke-linejoin="round"/>
</svg>
