<svg width="100" height="100" viewBox="0 0 100 100" fill="none" xmlns="http://www.w3.org/2000/svg">
<path d="M50 4C48.583 4 47.0928 4.07753 45.6445 4.20703C45.1175 4.24875 44.6039 4.39453 44.1335 4.63594C43.6632 4.87735 43.2453 5.20961 42.9042 5.6135C42.563 6.0174 42.3053 6.48491 42.1459 6.98902C41.9865 7.49313 41.9286 8.02383 41.9756 8.55044C42.0226 9.07706 42.1735 9.58913 42.4196 10.0571C42.6657 10.525 43.0021 10.9395 43.4094 11.2766C43.8167 11.6137 44.2867 11.8668 44.7924 12.0211C45.2981 12.1755 45.8294 12.228 46.3555 12.1758C47.5912 12.0653 48.877 12 50 12C62.8204 12 74.0301 18.3342 80.9102 28H74C73.47 27.9925 72.9437 28.0904 72.4518 28.2881C71.96 28.4857 71.5123 28.7792 71.1348 29.1514C70.7573 29.5235 70.4576 29.967 70.253 30.4561C70.0484 30.9451 69.943 31.4699 69.943 32C69.943 32.5301 70.0484 33.0549 70.253 33.5439C70.4576 34.033 70.7573 34.4765 71.1348 34.8486C71.5123 35.2208 71.96 35.5143 72.4518 35.7119C72.9437 35.9096 73.47 36.0075 74 36H90C91.0608 35.9999 92.0782 35.5784 92.8283 34.8283C93.5784 34.0782 93.9999 33.0608 94 32V16C94.0073 15.4652 93.9073 14.9343 93.7059 14.4388C93.5045 13.9433 93.2057 13.4932 92.8273 13.1152C92.4489 12.7372 91.9986 12.4389 91.5029 12.2379C91.0072 12.037 90.4762 11.9375 89.9414 11.9453C88.8812 11.9608 87.8706 12.3966 87.1315 13.1569C86.3925 13.9172 85.9855 14.9398 86 16V21.4805C77.5847 10.862 64.6153 4 50 4ZM14 8C13.47 7.9925 12.9437 8.09043 12.4518 8.28808C11.96 8.48574 11.5123 8.77918 11.1348 9.15136C10.7573 9.52354 10.4576 9.96703 10.253 10.4561C10.0484 10.9451 9.94303 11.4699 9.94303 12C9.94303 12.5301 10.0484 13.0549 10.253 13.5439C10.4576 14.033 10.7573 14.4765 11.1348 14.8486C11.5123 15.2208 11.96 15.5143 12.4518 15.7119C12.9437 15.9096 13.47 16.0075 14 16H18.9961C9.75415 24.4471 4 36.6227 4 50C4 51.4099 4.05183 52.8791 4.16016 54.3047C4.19223 54.8344 4.32937 55.3524 4.56358 55.8285C4.79779 56.3047 5.12439 56.7295 5.52437 57.0782C5.92435 57.4269 6.38971 57.6926 6.89336 57.8597C7.397 58.0268 7.92886 58.0921 8.45797 58.0517C8.98707 58.0112 9.50285 57.866 9.97526 57.6243C10.4477 57.3826 10.8673 57.0493 11.2096 56.6439C11.552 56.2385 11.8103 55.769 11.9695 55.2628C12.1286 54.7565 12.1855 54.2237 12.1367 53.6953C12.045 52.4889 12 51.2061 12 50C12 38.1539 17.4412 27.493 26 20.5117V28C25.9925 28.53 26.0904 29.0563 26.2881 29.5482C26.4857 30.04 26.7792 30.4877 27.1514 30.8652C27.5235 31.2427 27.967 31.5424 28.4561 31.747C28.9451 31.9516 29.4699 32.057 30 32.057C30.5301 32.057 31.0549 31.9516 31.5439 31.747C32.033 31.5424 32.4765 31.2427 32.8486 30.8652C33.2208 30.4877 33.5143 30.04 33.7119 29.5482C33.9096 29.0563 34.0075 28.53 34 28V12C33.9999 10.9392 33.5784 9.92181 32.8283 9.17169C32.0782 8.42157 31.0608 8.00011 30 8H14ZM92.0938 43.9453C91.5354 43.9246 90.9789 44.0212 90.4602 44.2287C89.9414 44.4362 89.4718 44.75 89.0817 45.1501C88.6917 45.5501 88.3897 46.0274 88.1953 46.5512C88.0009 47.075 87.9184 47.6338 87.9531 48.1914C87.9824 48.8015 88 49.4039 88 50C88 62.8201 81.6649 74.03 72 80.9102V74C72.0073 73.4652 71.9073 72.9343 71.7059 72.4388C71.5045 71.9433 71.2057 71.4932 70.8273 71.1152C70.4489 70.7372 69.9986 70.4389 69.5029 70.2379C69.0072 70.037 68.4762 69.9375 67.9414 69.9453C66.8812 69.9608 65.8706 70.3966 65.1315 71.1569C64.3925 71.9172 63.9855 72.9398 64 74V90C64.0001 91.0608 64.4216 92.0782 65.1717 92.8283C65.9218 93.5784 66.9392 93.9999 68 94H84C84.53 94.0075 85.0563 93.9096 85.5482 93.7119C86.04 93.5143 86.4877 93.2208 86.8652 92.8486C87.2427 92.4765 87.5424 92.033 87.747 91.5439C87.9516 91.0549 88.057 90.5301 88.057 90C88.057 89.4699 87.9516 88.9451 87.747 88.4561C87.5424 87.967 87.2427 87.5235 86.8652 87.1514C86.4877 86.7792 86.04 86.4857 85.5482 86.2881C85.0563 86.0904 84.53 85.9925 84 86H78.5195C89.1373 77.5848 96 64.6156 96 50C96 49.2601 95.98 48.5305 95.9453 47.8086C95.9113 46.7968 95.4949 45.8355 94.7802 45.1186C94.0654 44.4017 93.1054 43.9824 92.0938 43.9453ZM10 66C8.93917 66.0001 7.92181 66.4216 7.17169 67.1717C6.42157 67.9218 6.00011 68.9392 6 70V86C5.9925 86.53 6.09043 87.0563 6.28808 87.5482C6.48574 88.04 6.77918 88.4877 7.15136 88.8652C7.52354 89.2427 7.96703 89.5424 8.45606 89.747C8.94509 89.9516 9.4699 90.057 10 90.057C10.5301 90.057 11.0549 89.9516 11.5439 89.747C12.033 89.5424 12.4765 89.2427 12.8486 88.8652C13.2208 88.4877 13.5143 88.04 13.7119 87.5482C13.9096 87.0563 14.0075 86.53 14 86V78.5547C22.4501 89.1841 35.4788 96 50 96C50.6974 96 51.4239 95.9866 52.1445 95.9609C53.2044 95.9219 54.2053 95.4636 54.9274 94.6868C55.6495 93.91 56.0336 92.8783 55.9952 91.8185C55.9569 90.7586 55.4993 89.7573 54.7231 89.0347C53.9468 88.3121 52.9154 87.9273 51.8555 87.9648C51.2321 87.9871 50.5986 88 50 88C38.1693 88 27.5732 82.5392 20.5938 74H26C26.53 74.0075 27.0563 73.9096 27.5482 73.7119C28.04 73.5143 28.4877 73.2208 28.8652 72.8486C29.2427 72.4765 29.5424 72.033 29.747 71.5439C29.9516 71.0549 30.057 70.5301 30.057 70C30.057 69.4699 29.9516 68.9451 29.747 68.4561C29.5424 67.967 29.2427 67.5235 28.8652 67.1514C28.4877 66.7792 28.04 66.4857 27.5482 66.2881C27.0563 66.0904 26.53 65.9925 26 66H10Z" fill="#FC6BB7"/>
</svg>
