<svg width="18" height="15" viewBox="0 0 18 15" fill="none" xmlns="http://www.w3.org/2000/svg">
<path d="M12.2 3.61111C12.2 2.8878 12.2 2.52614 12.1182 2.22942C11.8963 1.42421 11.2494 0.795263 10.4212 0.579506C10.116 0.5 9.74398 0.5 9 0.5C8.25602 0.5 7.88403 0.5 7.57883 0.579506C6.75061 0.795263 6.1037 1.42421 5.88178 2.22942C5.8 2.52614 5.8 2.8878 5.8 3.61111M3.56 14.5H14.44C15.3361 14.5 15.7841 14.5 16.1264 14.3305C16.4274 14.1813 16.6722 13.9433 16.8256 13.6507C17 13.3179 17 12.8823 17 12.0111V6.1C17 5.22881 17 4.79321 16.8256 4.46046C16.6722 4.16776 16.4274 3.92979 16.1264 3.78066C15.7841 3.61111 15.3361 3.61111 14.44 3.61111H3.56C2.66392 3.61111 2.21587 3.61111 1.87362 3.78066C1.57256 3.92979 1.32779 4.16776 1.17439 4.46046C1 4.79321 1 5.22881 1 6.1V12.0111C1 12.8823 1 13.3179 1.17439 13.6507C1.32779 13.9433 1.57256 14.1813 1.87362 14.3305C2.21587 14.5 2.66392 14.5 3.56 14.5Z" stroke="#5D5D5D" stroke-linecap="round" stroke-linejoin="round"/>
</svg>
