<svg width="39" height="32" viewBox="0 0 39 32" fill="none" xmlns="http://www.w3.org/2000/svg">
<path d="M37.8529 18.818C38.4842 17.2939 37.7605 15.5465 36.2363 14.9152C34.7122 14.2839 32.9648 15.0077 32.3335 16.5318C31.7022 18.0559 32.426 19.8033 33.9501 20.4346C35.4743 21.0659 37.2216 20.3421 37.8529 18.818Z" fill="white"/>
<path d="M32.1044 11.3808V13.8491C32.9304 13.2048 33.9647 12.8149 35.0914 12.8149C36.2182 12.8149 37.2524 13.2048 38.0785 13.8491V11.3808C38.0785 5.30757 33.1386 0.367676 27.0653 0.367676C23.9032 0.367676 21.0516 1.70921 19.0393 3.85038C17.0303 1.70921 14.1754 0.367676 11.0132 0.367676C4.9399 0.367676 0 5.30757 0 11.3808V28.6457C0 30.2945 1.33824 31.6327 2.98707 31.6327C4.6359 31.6327 5.97413 30.2945 5.97413 28.6457V11.3808C5.97413 8.60194 8.23426 6.34181 11.0132 6.34181C13.7921 6.34181 16.0522 8.60194 16.0522 11.3808V23.1573C16.0522 24.8061 17.3904 26.1443 19.0393 26.1443C20.6881 26.1443 22.0263 24.8061 22.0263 23.1573V11.3808C22.0263 8.60194 24.2864 6.34181 27.0653 6.34181C29.8442 6.34181 32.1044 8.60194 32.1044 11.3808Z" fill="white"/>
</svg>
