<svg width="39" height="32" viewBox="0 0 39 32" fill="none" xmlns="http://www.w3.org/2000/svg">
<g clip-path="url(#clip0_650_597)">
<path d="M11.2812 0C5.06141 0 0 5.05781 0 11.2732V28.9416H6.12124V11.2732C6.12124 8.42856 8.43454 6.1169 11.2812 6.1169C14.1278 6.1169 16.4411 8.42856 16.4411 11.2732C16.4411 8.29278 17.6062 5.58396 19.5017 3.56423C17.4432 1.37138 14.5184 0 11.2812 0Z" fill="#FC6BB7"/>
<path d="M27.722 0C24.4847 0 21.56 1.37138 19.5015 3.56423C21.3969 5.58057 22.5621 8.29278 22.5621 11.2732C22.5621 8.42856 24.8754 6.1169 27.722 6.1169C30.5686 6.1169 32.8819 8.42856 32.8819 11.2732V17.7125H39.0032V11.2732C38.9998 5.05781 33.9418 0 27.722 0Z" fill="#0BBDFF"/>
<path d="M16.4409 11.2734V23.3273H22.5622V11.2734C22.5622 8.293 21.397 5.58418 19.5015 3.56445C17.6061 5.58079 16.4409 8.293 16.4409 11.2734Z" fill="#A80298"/>
<path d="M19.5015 26.3856C21.1932 26.3856 22.5622 25.0176 22.5622 23.3271H16.4409C16.4409 25.0176 17.8099 26.3856 19.5015 26.3856Z" fill="#0068FF"/>
<path d="M19.5015 20.2686C17.8099 20.2686 16.4409 21.6365 16.4409 23.327H22.5622C22.5622 21.6365 21.1932 20.2686 19.5015 20.2686Z" fill="#2B24BC"/>
<path d="M35.9429 20.7743C37.6346 20.7743 39.0036 19.4063 39.0036 17.7158H32.8823C32.8823 19.4063 34.2513 20.7743 35.9429 20.7743Z" fill="#FC4F32"/>
<path d="M35.9429 14.6572C34.2513 14.6572 32.8823 16.0252 32.8823 17.7157H39.0036C39.0036 16.0252 37.6346 14.6572 35.9429 14.6572Z" fill="#694D62"/>
<path d="M3.06062 31.9999C4.75229 31.9999 6.12124 30.6319 6.12124 28.9414H0C0 30.6319 1.36896 31.9999 3.06062 31.9999Z" fill="#FFC306"/>
<path d="M3.06062 25.8828C1.36896 25.8828 0 27.2508 0 28.9413H6.12124C6.12124 27.2508 4.75229 25.8828 3.06062 25.8828Z" fill="#EA4242"/>
</g>
<defs>
<clipPath id="clip0_650_597">
<rect width="39" height="32" fill="white"/>
</clipPath>
</defs>
</svg>
