<svg width="106" height="50" viewBox="0 0 106 50" fill="none" xmlns="http://www.w3.org/2000/svg">
<g clip-path="url(#clip0_340_9294)">
<path d="M14.1461 0C6.62376 0 0.5 6.11774 0.5 13.6327V34.9973H7.9001V13.6327C7.9001 10.2008 10.6972 7.39284 14.1461 7.39284C17.5949 7.39284 20.392 10.1872 20.392 13.6327C20.392 10.0244 21.8041 6.75529 24.0989 4.31362C21.6141 1.66848 18.0702 0 14.1596 0L14.1461 0Z" fill="#FC6BB7"/>
<path d="M34.0244 0C30.1139 0 26.57 1.65491 24.0852 4.31362C26.3799 6.75529 27.792 10.0244 27.792 13.6327C27.792 10.2008 30.5891 7.39284 34.038 7.39284C37.4869 7.39284 40.284 10.1872 40.284 13.6327V21.4189H47.6841V13.6327C47.6841 6.11774 41.5603 0 34.038 0H34.0244Z" fill="#0BBDFF"/>
<path d="M20.3783 13.6327V28.2013H27.7784V13.6327C27.7784 10.0244 26.3663 6.75529 24.0716 4.31362C21.7769 6.75529 20.3647 10.0244 20.3647 13.6327H20.3783Z" fill="#A80298"/>
<path d="M24.0854 31.9045C26.1357 31.9045 27.7922 30.2496 27.7922 28.2013H20.3921C20.3921 30.2496 22.0486 31.9045 24.0989 31.9045H24.0854Z" fill="#0068FF"/>
<path d="M24.0853 24.4981C22.035 24.4981 20.3784 26.153 20.3784 28.2013H27.7785C27.7785 26.153 26.122 24.4981 24.0717 24.4981H24.0853Z" fill="#2B24BC"/>
<path d="M43.9638 25.1085C46.0141 25.1085 47.6706 23.4536 47.6706 21.4053H40.2705C40.2705 23.4536 41.927 25.1085 43.9773 25.1085H43.9638Z" fill="#FC4F32"/>
<path d="M43.9637 17.7157C41.9134 17.7157 40.2568 19.3706 40.2568 21.4189H47.6569C47.6569 19.3706 46.0004 17.7157 43.9501 17.7157H43.9637Z" fill="#694D62"/>
<path d="M4.20684 38.6869C6.25714 38.6869 7.91368 37.032 7.91368 34.9837H0.5C0.5 37.032 2.15654 38.6869 4.20684 38.6869Z" fill="#FFC306"/>
<path d="M4.20684 31.2941C2.15654 31.2941 0.5 32.949 0.5 34.9973H7.9001C7.9001 32.949 6.24357 31.2941 4.19326 31.2941H4.20684Z" fill="#EA4242"/>
<path d="M79.389 38.9853C79.0495 33.0304 75.5192 29.5442 69.9386 29.6256C64.5752 29.707 60.8955 33.9935 60.9906 40.0298C61.0856 46.1069 64.7517 49.8101 70.5496 49.7151C74.2021 49.6609 77.1893 48.2366 78.5336 45.9034L78.8051 45.4286L75.655 43.3804L75.3563 43.9094C74.1207 46.0662 71.6359 46.3375 70.6175 46.3511C67.671 46.4053 65.4985 44.3706 65.1862 41.3592L79.3618 41.1286C79.3618 41.1286 79.4026 39.2973 79.4026 38.9718L79.389 38.9853ZM65.1591 37.9409C65.58 35.1194 67.6303 33.0304 70.1287 32.9897C72.2333 32.949 74.7317 34.2105 75.1526 37.7781L65.1591 37.9409Z" fill="#14191E"/>
<path d="M55.8717 31.9588C54.2016 30.6023 52.3278 29.9647 50.1689 30.0054C47.5076 30.0461 45.4844 30.9414 43.9636 32.7184C42.2121 30.9821 40.1482 30.1682 37.6905 30.2089C35.5316 30.2496 33.6171 30.9685 32.0013 32.3521C30.3447 33.7765 29.5301 35.7298 29.5708 38.1715L29.7609 50L33.7529 49.9322L33.5628 38.1036C33.522 35.567 35.2193 33.7765 37.6905 33.7358C39.768 33.6951 42.0084 35.1736 42.0491 37.968L42.2392 49.7965L46.1905 49.7287L45.9868 37.6696C45.9461 35.1194 48.0507 33.573 50.1146 33.5323C52.1784 33.4916 54.4324 34.9702 54.4732 37.7645L54.6632 49.5931L58.6145 49.5252L58.4244 37.6967C58.3837 35.2279 57.5147 33.3017 55.8581 31.9588H55.8717Z" fill="#14191E"/>
<path d="M95.8052 31.3077C94.1351 29.9512 92.2613 29.3136 90.1023 29.3543C88.4594 29.3814 87.0065 29.7613 85.7981 30.4666L85.6487 21.541L81.7246 21.6088L82.1727 49.1318L86.1239 49.064L85.9203 37.0049C85.8795 34.4547 87.9841 32.9083 90.048 32.8676C92.1119 32.8269 94.3659 34.3055 94.4066 37.0998L94.5967 48.9284L98.548 48.8606L98.3579 37.032C98.3171 34.5632 97.4481 32.637 95.7916 31.2941L95.8052 31.3077Z" fill="#14191E"/>
<path d="M103.124 26.0988C104.481 26.0716 105.527 25 105.5 23.63C105.473 22.2599 104.373 21.2561 103.042 21.2832C101.711 21.3104 100.598 22.3684 100.625 23.7113C100.652 25.0543 101.739 26.1259 103.124 26.0988Z" fill="#14191E"/>
<path d="M105.117 29.0757L101.166 29.1398L101.486 48.8334L105.437 48.7693L105.117 29.0757Z" fill="#14191E"/>
</g>
<defs>
<clipPath id="clip0_340_9294">
<rect width="105" height="50" fill="white" transform="translate(0.5)"/>
</clipPath>
</defs>
</svg>
